# xmcd
#
# Track frame offsets:
#	150
#	11448
#	31981
#	52368
#
# Disc length: 1001 seconds
#
# Revision: 1
# Processed by: cddbd v1.5.2PL0 Copyright (c) Steve Scherf et al.
# Submitted via: audiograbber 1.83.01
#
DISCID=2d03e704
DTITLE=Yolanda Be Cool and DCUP - Yolanda Be Cool and DCUP
DYEAR=2010
DGENRE=Pop
TTITLE0=We No Speak Americano Radio Edit
TTITLE1=We No Speak Americano Extendet Mix
TTITLE2=We No Speak Americano Original
TTITLE3=We No Speak Americano Rockerz Chiefs Booty Mix
EXTD=
EXTT0=
EXTT1=
EXTT2=
EXTT3=
PLAYORDER=
